HIERARCHY
ROOT Hips
{
	OFFSET 0.000000 71.427986 0.000000
	CHANNELS 6 Xposition Yposition Zposition Xrotation Yrotation Zrotation
	JOINT Pelvis
	{
		OFFSET 0.000000 0.000000 0.000000
		CHANNELS 3 Xrotation Yrotation Zrotation
		JOINT LeftUpLeg
		{
			OFFSET 6.797100 -2.508499 -1.318700
			CHANNELS 3 Xrotation Yrotation Zrotation
			JOINT LeftLeg
			{
				OFFSET 0.069008 -29.241863 0.690200
				CHANNELS 3 Xrotation Yrotation Zrotation
				JOINT LeftFoot
				{
					OFFSET -0.069008 -29.568123 -0.266800
					CHANNELS 3 Xrotation Yrotation Zrotation
					JOINT LeftToeBase
					{
						OFFSET 3.145500 -8.631000 16.059900
						CHANNELS 3 Xrotation Yrotation Zrotation
						End Site
						{
							OFFSET 0.000000 18.501587 0.000000
						}
					}
				}
			}
			JOINT Left_ShortSleeve
			{
				OFFSET 0.265923 -10.480953 1.153800
				CHANNELS 3 Xrotation Yrotation Zrotation
				End Site
				{
					OFFSET 1.725763 19.823879 0.000000
				}
			}
		}
		JOINT RightUpLeg
		{
			OFFSET -6.797100 -2.508499 -1.318700
			CHANNELS 3 Xrotation Yrotation Zrotation
			JOINT RightLeg
			{
				OFFSET -0.082453 -29.241932 0.688000
				CHANNELS 3 Xrotation Yrotation Zrotation
				JOINT RightFoot
				{
					OFFSET 0.082453 -29.568058 -0.264600
					CHANNELS 3 Xrotation Yrotation Zrotation
					JOINT RightToeBase
					{
						OFFSET -3.115300 -8.682800 16.113400
						CHANNELS 3 Xrotation Yrotation Zrotation
						End Site
						{
							OFFSET 0.000000 18.567114 0.000000
						}
					}
				}
			}
			JOINT Right_ShortSleeve
			{
				OFFSET -0.265923 -10.480953 1.153800
				CHANNELS 3 Xrotation Yrotation Zrotation
				End Site
				{
					OFFSET -1.725766 19.823910 0.000000
				}
			}
		}
	}
	JOINT Spine
	{
		OFFSET 0.000000 13.368103 0.470500
		CHANNELS 3 Xrotation Yrotation Zrotation
		JOINT Spine1
		{
			OFFSET 0.147000 13.837402 0.538800
			CHANNELS 3 Xrotation Yrotation Zrotation
			JOINT Spine2
			{
				OFFSET 0.168000 16.242897 -1.435500
				CHANNELS 3 Xrotation Yrotation Zrotation
				JOINT Neck
				{
					OFFSET 0.217200 18.631500 -1.679100
					CHANNELS 3 Xrotation Yrotation Zrotation
					JOINT Head
					{
						OFFSET 0.000000 6.599396 1.385900
						CHANNELS 3 Xrotation Yrotation Zrotation
						JOINT Hat
						{
							OFFSET -0.532200 27.220596 -10.096100
							CHANNELS 3 Xrotation Yrotation Zrotation
							End Site
							{
								OFFSET 0.000000 22.029861 0.000000
							}
						}
						JOINT HairD
						{
							OFFSET -10.777400 17.437393 -1.325900
							CHANNELS 3 Xrotation Yrotation Zrotation
							JOINT HairD1
							{
								OFFSET -3.290299 -11.051193 1.062200
								CHANNELS 3 Xrotation Yrotation Zrotation
								End Site
								{
									OFFSET 0.000000 11.579437 0.000000
								}
							}
						}
						JOINT HairB
						{
							OFFSET -10.777400 17.437393 1.467900
							CHANNELS 3 Xrotation Yrotation Zrotation
							JOINT HairB1
							{
								OFFSET -1.561200 -12.956299 3.590200
								CHANNELS 3 Xrotation Yrotation Zrotation
								End Site
								{
									OFFSET 0.000000 13.534866 0.000000
								}
							}
						}
						JOINT HairA
						{
							OFFSET 9.713100 17.437393 1.467900
							CHANNELS 3 Xrotation Yrotation Zrotation
							JOINT HairA1
							{
								OFFSET 1.561200 -12.956299 3.590200
								CHANNELS 3 Xrotation Yrotation Zrotation
								End Site
								{
									OFFSET 0.000000 13.534866 0.000000
								}
							}
						}
						JOINT HairC
						{
							OFFSET 9.713100 17.437393 -1.325900
							CHANNELS 3 Xrotation Yrotation Zrotation
							JOINT HairC1
							{
								OFFSET 3.290300 -11.051193 1.062200
								CHANNELS 3 Xrotation Yrotation Zrotation
								End Site
								{
									OFFSET 0.000000 11.579437 0.000000
								}
							}
						}
					}
				}
				JOINT LeftShoulder
				{
					OFFSET 5.101800 15.108002 -2.763700
					CHANNELS 3 Xrotation Yrotation Zrotation
					JOINT LeftArm
					{
						OFFSET 9.825497 2.506317 -1.597400
						CHANNELS 3 Xrotation Yrotation Zrotation
						JOINT LeftForeArm
						{
							OFFSET 21.966244 0.000000 0.000000
							CHANNELS 3 Xrotation Yrotation Zrotation
							JOINT LeftHand
							{
								OFFSET 33.879036 0.000000 0.000000
								CHANNELS 3 Xrotation Yrotation Zrotation
								JOINT LeftHandThumb1
								{
									OFFSET 6.715286 -2.359680 3.363841
									CHANNELS 3 Xrotation Yrotation Zrotation
									JOINT LeftHandThumb2
									{
										OFFSET 2.507072 -1.447464 1.447461
										CHANNELS 3 Xrotation Yrotation Zrotation
										JOINT LeftHandThumb3
										{
											OFFSET 2.898338 -1.673355 1.673357
											CHANNELS 3 Xrotation Yrotation Zrotation
											End Site
											{
												OFFSET -0.295959 3.727692 -0.131651
											}
										}
									}
								}
								JOINT LeftHandIndex1
								{
									OFFSET 14.190811 -0.254547 3.840278
									CHANNELS 3 Xrotation Yrotation Zrotation
									JOINT LeftHandIndex2
									{
										OFFSET 3.551727 0.000000 -0.000000
										CHANNELS 3 Xrotation Yrotation Zrotation
										JOINT LeftHandIndex3
										{
											OFFSET 2.894196 0.000000 0.000000
											CHANNELS 3 Xrotation Yrotation Zrotation
											End Site
											{
												OFFSET -1.000603 2.690872 0.366626
											}
										}
									}
								}
								JOINT LeftHandMiddle1
								{
									OFFSET 13.776489 0.000000 0.000000
									CHANNELS 3 Xrotation Yrotation Zrotation
									JOINT LeftHandMiddle2
									{
										OFFSET 3.438232 0.000000 0.000000
										CHANNELS 3 Xrotation Yrotation Zrotation
										JOINT LeftHandMiddle3
										{
											OFFSET 3.691551 0.000000 0.000000
											CHANNELS 3 Xrotation Yrotation Zrotation
											End Site
											{
												OFFSET -1.082298 3.499527 0.457670
											}
										}
									}
								}
								JOINT LeftHandRing1
								{
									OFFSET 13.966164 -0.268127 -3.067488
									CHANNELS 3 Xrotation Yrotation Zrotation
									JOINT LeftHandRing2
									{
										OFFSET 3.162567 0.000000 0.000000
										CHANNELS 3 Xrotation Yrotation Zrotation
										JOINT LeftHandRing3
										{
											OFFSET 3.324348 0.000000 0.000000
											CHANNELS 3 Xrotation Yrotation Zrotation
											End Site
											{
												OFFSET -0.861900 3.184998 0.405154
											}
										}
									}
								}
								JOINT LeftHandPinky1
								{
									OFFSET 13.131393 -0.168503 -5.746925
									CHANNELS 3 Xrotation Yrotation Zrotation
									JOINT LeftHandPinky2
									{
										OFFSET 2.849182 0.000000 0.000000
										CHANNELS 3 Xrotation Yrotation Zrotation
										JOINT LeftHandPinky3
										{
											OFFSET 2.805038 0.000000 0.000000
											CHANNELS 3 Xrotation Yrotation Zrotation
											End Site
											{
												OFFSET -0.882500 2.642609 0.325652
											}
										}
									}
								}
							}
							JOINT Left_Sleeve
							{
								OFFSET 6.592125 -0.646545 0.805568
								CHANNELS 3 Xrotation Yrotation Zrotation
								End Site
								{
									OFFSET -0.000179 20.275787 -0.000000
								}
							}
						}
					}
				}
				JOINT RightShoulder
				{
					OFFSET -5.731700 15.108002 -2.763700
					CHANNELS 3 Xrotation Yrotation Zrotation
					JOINT RightArm
					{
						OFFSET -9.825497 2.506317 -1.597400
						CHANNELS 3 Xrotation Yrotation Zrotation
						JOINT RightForeArm
						{
							OFFSET -21.966242 0.000000 0.000000
							CHANNELS 3 Xrotation Yrotation Zrotation
							JOINT RightHand
							{
								OFFSET -33.879032 0.000000 0.000000
								CHANNELS 3 Xrotation Yrotation Zrotation
								JOINT RightHandThumb1
								{
									OFFSET -6.715286 -2.359680 3.363841
									CHANNELS 3 Xrotation Yrotation Zrotation
									JOINT RightHandThumb2
									{
										OFFSET -2.507072 -1.447464 1.447461
										CHANNELS 3 Xrotation Yrotation Zrotation
										JOINT RightHandThumb3
										{
											OFFSET -2.898338 -1.673355 1.673357
											CHANNELS 3 Xrotation Yrotation Zrotation
											End Site
											{
												OFFSET 0.295959 3.727692 -0.131651
											}
										}
									}
								}
								JOINT RightHandIndex1
								{
									OFFSET -14.190811 -0.254547 3.840278
									CHANNELS 3 Xrotation Yrotation Zrotation
									JOINT RightHandIndex2
									{
										OFFSET -3.551727 0.000000 -0.000000
										CHANNELS 3 Xrotation Yrotation Zrotation
										JOINT RightHandIndex3
										{
											OFFSET -2.894196 0.000000 0.000000
											CHANNELS 3 Xrotation Yrotation Zrotation
											End Site
											{
												OFFSET 1.000603 2.690872 0.366626
											}
										}
									}
								}
								JOINT RightHandMiddle1
								{
									OFFSET -13.776489 0.000000 0.000000
									CHANNELS 3 Xrotation Yrotation Zrotation
									JOINT RightHandMiddle2
									{
										OFFSET -3.438232 0.000000 0.000000
										CHANNELS 3 Xrotation Yrotation Zrotation
										JOINT RightHandMiddle3
										{
											OFFSET -3.691551 0.000000 0.000000
											CHANNELS 3 Xrotation Yrotation Zrotation
											End Site
											{
												OFFSET 1.082298 3.499527 0.457670
											}
										}
									}
								}
								JOINT RightHandRing1
								{
									OFFSET -13.966164 -0.268127 -3.067488
									CHANNELS 3 Xrotation Yrotation Zrotation
									JOINT RightHandRing2
									{
										OFFSET -3.162567 0.000000 0.000000
										CHANNELS 3 Xrotation Yrotation Zrotation
										JOINT RightHandRing3
										{
											OFFSET -3.324348 0.000000 0.000000
											CHANNELS 3 Xrotation Yrotation Zrotation
											End Site
											{
												OFFSET 0.861900 3.184998 0.405154
											}
										}
									}
								}
								JOINT RightHandPinky1
								{
									OFFSET -13.131393 -0.168503 -5.746925
									CHANNELS 3 Xrotation Yrotation Zrotation
									JOINT RightHandPinky2
									{
										OFFSET -2.849182 0.000000 0.000000
										CHANNELS 3 Xrotation Yrotation Zrotation
										JOINT RightHandPinky3
										{
											OFFSET -2.805038 0.000000 0.000000
											CHANNELS 3 Xrotation Yrotation Zrotation
											End Site
											{
												OFFSET 0.882500 2.642609 0.325652
											}
										}
									}
								}
							}
							JOINT Right_Sleeve
							{
								OFFSET -6.592125 -0.646545 0.805568
								CHANNELS 3 Xrotation Yrotation Zrotation
								End Site
								{
									OFFSET 0.000179 20.275787 -0.000000
								}
							}
						}
					}
				}
				JOINT Bind_Right_JacketString
				{
					OFFSET -3.534800 11.969597 7.200700
					CHANNELS 3 Xrotation Yrotation Zrotation
					JOINT Bind_Right_JacketString1
					{
						OFFSET -0.319900 -6.102600 2.794100
						CHANNELS 3 Xrotation Yrotation Zrotation
						End Site
						{
							OFFSET 0.000000 6.719452 0.000000
						}
					}
				}
				JOINT Bind_Left_JacketString
				{
					OFFSET 2.904800 11.969597 7.200700
					CHANNELS 3 Xrotation Yrotation Zrotation
					JOINT Bind_Left_JacketString1
					{
						OFFSET 0.364800 -5.904503 3.186800
						CHANNELS 3 Xrotation Yrotation Zrotation
						End Site
						{
							OFFSET 0.000000 6.719513 0.000000
						}
					}
				}
				JOINT HairE
				{
					OFFSET 5.915200 17.612701 -11.592200
					CHANNELS 3 Xrotation Yrotation Zrotation
					JOINT HairE1
					{
						OFFSET 0.289200 -7.171898 -1.284500
						CHANNELS 3 Xrotation Yrotation Zrotation
						End Site
						{
							OFFSET 0.000000 7.291756 0.000000
						}
					}
				}
				JOINT HairF
				{
					OFFSET -0.864800 17.612701 -11.592200
					CHANNELS 3 Xrotation Yrotation Zrotation
					JOINT HairF1
					{
						OFFSET 0.000000 -14.087097 -2.127501
						CHANNELS 3 Xrotation Yrotation Zrotation
						End Site
						{
							OFFSET 0.000000 14.246841 0.000000
						}
					}
				}
				JOINT HairG
				{
					OFFSET -8.087700 17.612701 -11.592200
					CHANNELS 3 Xrotation Yrotation Zrotation
					JOINT HairG1
					{
						OFFSET -0.293600 -6.081398 -0.910100
						CHANNELS 3 Xrotation Yrotation Zrotation
						End Site
						{
							OFFSET 0.000000 6.156120 0.000000
						}
					}
				}
			}
		}
	}
	JOINT Pouch
	{
		OFFSET 0.000000 4.394501 10.847300
		CHANNELS 3 Xrotation Yrotation Zrotation
		End Site
		{
			OFFSET 0.000000 21.880577 0.000000
		}
	}
	JOINT Bag
	{
		OFFSET -13.229000 4.813004 -0.593300
		CHANNELS 3 Xrotation Yrotation Zrotation
		End Site
		{
			OFFSET 0.000000 21.880577 0.000000
		}
	}
	JOINT OccupyGuyFacialAnim_Joint
	{
		OFFSET 1.000000 -70.206398 -1.655000
		CHANNELS 3 Xrotation Yrotation Zrotation
		End Site
		{
			OFFSET 0.000000 21.880577 0.000000
		}
	}
}
MOTION
Frames: 4
Frame Time: 0.016667
-2.519433 67.901482 -0.815123 1.779891 -44.827915 4.671995 0.000000 0.000003 -0.000000 -18.471664 8.572136 11.026488 11.891049 -8.667123 3.771460 3.890474 -2.306841 -17.208143 0.000000 -0.000003 0.000000 0.000002 -0.000001 -0.000000 -10.324535 -7.253882 -14.776899 25.735661 -11.496472 -8.311289 -13.076869 -6.071434 21.725339 -0.000000 -0.000000 0.000000 0.000000 0.000003 -0.000000 6.689393 0.779817 -0.711337 -0.557036 1.560419 -1.610233 -0.534576 1.560464 -1.609752 -19.005372 -1.508391 20.421620 -4.556865 11.720407 -16.000780 -0.000002 -0.000000 0.000000 -0.000002 -0.000000 0.000000 -0.000002 -0.000000 0.000001 -0.000002 -0.000000 0.000000 -0.000000 -0.000002 -0.000001 -0.000002 -0.000000 0.000000 -0.000000 -0.000002 -0.000001 -0.000002 -0.000000 0.000000 -0.000002 -0.000000 0.000000 -8.631162 -5.317955 -15.297513 0.075338 -2.626987 -31.066825 42.317506 -37.063342 15.465978 -23.800368 3.779279 5.091208 7.895949 12.754513 1.888086 -2.399862 10.098194 -6.912109 -0.000003 -0.000000 -0.000000 10.366016 -5.431314 -20.260055 0.012396 0.242540 -14.888696 0.000001 0.000002 -0.000003 8.099313 -3.521113 -16.129440 0.036831 0.594719 -11.734536 0.000001 -0.000002 0.000002 7.437962 -2.616152 -14.483976 -0.036251 0.187722 -10.043026 -0.000001 0.000001 -0.000001 6.501839 -1.624402 -10.619923 -0.001457 0.148106 -9.427954 0.000001 -0.000002 0.000001 0.000000 -0.000002 -0.000001 -0.620555 15.164833 -23.726503 -69.097042 11.570650 13.062490 113.321588 148.813757 -130.632491 -14.646393 20.622267 10.268459 0.299570 -0.474250 0.374523 -3.620649 -7.484600 8.065526 -0.000002 0.000003 0.000000 10.001364 7.473611 21.241250 -0.008305 -0.266162 15.389796 -0.000000 0.000001 -0.000001 6.820051 4.437951 24.757431 0.121753 -0.593782 18.466424 -0.000000 0.000001 -0.000004 4.875297 1.715997 32.191918 -0.003221 -0.241521 22.203675 -0.000000 0.000001 -0.000004 3.061659 -1.343065 39.368022 0.068278 -0.198056 27.160230 -0.000002 0.000006 0.000003 0.000002 0.000002 -0.000001 -0.000000 -0.000001 0.000000 -0.000000 0.000001 -0.000000 -0.000000 -0.000001 0.000000 -0.000000 -0.000001 0.000000 -0.000000 -0.000001 0.000000 -0.000000 0.000001 -0.000000 -0.000000 -0.000001 0.000000 -0.000000 -0.000001 0.000000 -0.000000 -0.000001 0.000000 -0.000000 0.000001 -0.000000 0.000000 0.000003 -0.000000 0.000000 0.000003 -0.000000 0.000000 0.000003 -0.000000 
-2.119829 67.791832 -0.876030 1.866910 -45.780446 4.910281 -0.000000 0.000001 -0.000000 -19.025967 8.647609 11.121058 12.977254 -7.902910 3.406976 3.271459 -2.230178 -16.973145 -0.000000 -0.000001 0.000000 0.000000 -0.000003 -0.000001 -11.389536 -6.884763 -15.082376 26.473494 -10.715934 -8.766710 -12.987793 -5.973126 21.953792 -0.000000 -0.000000 0.000000 -0.000000 0.000001 0.000000 6.825912 0.793553 -0.658038 -0.284723 1.586139 -1.496926 -0.262264 1.586177 -1.496443 -19.292207 0.711459 20.366997 -3.643175 13.440625 -15.407657 -0.000002 -0.000001 -0.000001 -0.000002 -0.000001 -0.000001 -0.000002 -0.000001 -0.000000 -0.000002 -0.000001 -0.000001 -0.000000 0.000002 0.000000 -0.000002 -0.000001 -0.000001 -0.000000 0.000002 0.000000 -0.000002 -0.000001 -0.000001 -0.000002 -0.000001 -0.000001 -8.545908 -5.440099 -14.847627 0.040957 -2.007568 -31.692194 42.522517 -37.721198 16.179332 -23.412162 3.306864 4.559597 7.803306 12.376377 1.963683 -2.337373 10.219269 -6.846310 -0.000002 0.000001 -0.000002 10.515341 -5.092610 -20.325960 0.011411 0.243614 -15.207519 0.000002 0.000000 -0.000004 8.128682 -3.265503 -16.334852 0.039435 0.596842 -12.096726 -0.000001 0.000001 -0.000003 7.412082 -2.391984 -14.908250 -0.036565 0.190007 -10.461716 -0.000002 0.000000 -0.000004 6.330460 -1.420189 -11.092621 0.000946 0.151189 -10.093304 0.000000 0.000001 0.000003 0.000000 0.000000 0.000002 -1.211231 15.565841 -20.539014 -65.286370 12.486775 13.348859 113.302258 142.450794 -129.003791 -15.346267 19.991250 10.507277 0.841602 -1.185478 0.646266 -3.543936 -7.625426 7.985590 0.000003 0.000001 -0.000000 10.272586 7.143719 23.988130 -0.006347 -0.268619 17.205516 0.000002 -0.000002 0.000003 6.758864 4.033173 27.064514 0.133524 -0.599011 20.307599 -0.000002 0.000001 -0.000004 4.642735 1.320746 34.431759 -0.002025 -0.250324 23.879675 -0.000001 0.000000 -0.000000 2.590316 -1.663345 41.407397 0.074435 -0.202431 28.788868 -0.000001 0.000002 -0.000001 0.000000 0.000001 -0.000001 0.000000 0.000000 -0.000000 0.000000 0.000000 -0.000000 0.000000 0.000000 -0.000000 0.000000 0.000000 -0.000000 0.000000 0.000000 -0.000000 0.000000 0.000000 0.000000 0.000000 0.000000 -0.000000 0.000000 0.000000 -0.000000 0.000000 0.000000 -0.000000 0.000000 0.000000 0.000000 -0.000000 0.000001 -0.000000 -0.000000 0.000001 -0.000000 -0.000000 0.000001 -0.000000 
-1.723640 67.674545 -0.938322 1.965901 -46.727134 5.159319 0.000000 0.000001 -0.000001 -19.963878 8.635270 11.280405 14.732694 -7.198135 3.052677 2.574197 -2.146212 -16.719518 -0.000000 0.000002 -0.000000 -0.000002 0.000000 -0.000000 -12.461845 -6.484346 -15.380466 27.245870 -9.931119 -9.173489 -12.928496 -5.864615 22.146777 -0.000000 0.000002 -0.000000 0.000000 -0.000004 -0.000001 6.983776 0.802742 -0.616872 0.030506 1.602063 -1.410631 0.052967 1.602125 -1.410150 -19.678866 2.847931 20.261696 -2.884405 15.081088 -14.720874 -0.000001 0.000001 0.000001 -0.000001 0.000001 0.000001 -0.000001 0.000001 0.000001 -0.000001 0.000001 0.000000 0.000001 -0.000001 0.000000 -0.000001 0.000001 0.000000 0.000001 -0.000001 0.000000 -0.000001 0.000001 0.000001 -0.000001 0.000001 0.000001 -8.451881 -5.621937 -14.376196 -0.075751 -1.533877 -32.297936 42.235356 -38.238558 16.524082 -22.717009 2.721476 4.212274 7.702753 11.981692 2.047352 -2.271929 10.346045 -6.777512 -0.000001 -0.000000 -0.000004 10.666657 -4.778023 -20.352550 0.010619 0.244522 -15.498638 0.000001 0.000003 -0.000001 8.160066 -3.018654 -16.524666 0.041912 0.599031 -12.447963 -0.000000 0.000001 -0.000003 7.387561 -2.161941 -15.340876 -0.036752 0.192307 -10.886784 -0.000001 -0.000002 -0.000000 6.154518 -1.190094 -11.592636 0.003673 0.154461 -10.790909 -0.000000 -0.000003 0.000003 0.000000 -0.000000 0.000001 -1.838004 15.913858 -17.234362 -61.208617 13.459260 13.486402 111.295515 139.193477 -126.470132 -13.055760 19.376688 10.856552 1.302490 -1.793410 0.752539 -3.461115 -7.778545 7.899736 -0.000006 -0.000001 0.000004 10.560517 6.834427 26.258669 -0.005027 -0.270947 18.813691 -0.000000 -0.000001 -0.000002 6.734489 3.630418 28.949262 0.144538 -0.603054 21.917397 0.000000 -0.000003 0.000002 4.449667 0.905867 36.260340 -0.000536 -0.257386 25.307377 0.000002 0.000002 0.000002 2.154130 -2.026325 43.046721 0.080091 -0.205642 30.188186 0.000001 0.000005 -0.000001 0.000001 -0.000002 0.000001 -0.000000 0.000000 0.000000 0.000000 0.000002 -0.000000 -0.000000 0.000000 -0.000000 -0.000000 0.000000 -0.000000 -0.000000 0.000000 0.000000 0.000000 0.000002 -0.000000 -0.000000 0.000000 -0.000000 -0.000000 0.000000 -0.000000 -0.000000 0.000000 0.000000 0.000000 0.000002 -0.000000 0.000000 0.000001 -0.000001 0.000000 0.000001 -0.000001 0.000000 0.000001 -0.000001 
-1.332510 67.550949 -1.002446 2.077787 -47.659100 5.417689 -0.000000 -0.000001 0.000000 -20.840340 8.639983 11.412541 16.337637 -6.497256 2.718632 1.988488 -2.099887 -16.386874 0.000000 -0.000002 0.000000 0.000001 -0.000004 -0.000002 -13.576387 -6.101496 -15.751859 28.107723 -9.099943 -9.400305 -12.925868 -5.724941 22.234235 -0.000000 0.000000 0.000000 0.000002 -0.000004 -0.000000 7.159605 0.811136 -0.582678 0.381791 1.616027 -1.339483 0.404244 1.616080 -1.339004 -20.090175 4.892741 20.079756 -2.370501 16.634121 -14.025587 -0.000001 -0.000000 0.000001 -0.000001 -0.000000 0.000001 -0.000001 -0.000000 0.000001 -0.000001 -0.000000 0.000000 -0.000001 0.000001 -0.000000 -0.000001 -0.000000 0.000000 -0.000001 0.000001 -0.000000 -0.000001 -0.000000 0.000001 -0.000001 -0.000000 0.000001 -8.350765 -5.895218 -13.889796 -0.307276 -1.191903 -32.855539 41.504908 -38.584630 16.501879 -21.860753 2.062552 4.067431 7.595145 11.572962 2.139293 -2.203542 10.479053 -6.705540 0.000000 -0.000000 -0.000002 10.817046 -4.496412 -20.333354 0.009951 0.245458 -15.754682 0.000002 0.000001 -0.000002 8.192552 -2.786676 -16.693595 0.044367 0.601073 -12.787677 0.000000 0.000000 -0.000001 7.364238 -1.930040 -15.779275 -0.036704 0.194719 -11.318096 -0.000000 -0.000001 -0.000004 5.974166 -0.935454 -12.117716 0.006732 0.157876 -11.523800 -0.000001 0.000001 -0.000002 -0.000000 -0.000001 -0.000005 -2.473716 16.306107 -13.905137 -56.841278 14.356173 13.304796 109.584320 135.172285 -124.529348 -12.518394 18.763426 11.455882 1.709470 -2.341684 0.715091 -3.375395 -7.937551 7.810752 0.000000 -0.000001 0.000000 10.848340 6.547853 27.989738 -0.004354 -0.273170 20.162283 -0.000002 0.000002 0.000001 6.739376 3.239566 30.352316 0.154409 -0.605480 23.251907 -0.000000 -0.000002 0.000002 4.297158 0.478155 37.613637 0.001104 -0.262406 26.447637 0.000001 0.000000 -0.000002 1.767430 -2.429477 44.218371 0.085100 -0.207510 31.316370 -0.000001 0.000003 -0.000001 0.000002 0.000001 0.000001 -0.000000 -0.000001 -0.000000 -0.000000 0.000001 -0.000001 -0.000000 -0.000001 0.000000 -0.000000 -0.000001 0.000000 -0.000000 -0.000001 -0.000000 -0.000000 0.000001 -0.000000 -0.000000 -0.000001 0.000000 -0.000000 -0.000001 0.000000 -0.000000 -0.000001 -0.000000 -0.000000 0.000001 -0.000000 -0.000000 -0.000001 0.000000 -0.000000 -0.000001 0.000000 -0.000000 -0.000001 0.000000 
